<svg width="20" height="20" viewBox="0 0 20 20" fill="none" xmlns="http://www.w3.org/2000/svg">
<rect width="20" height="20" fill="white"/>
<path opacity="0.6" d="M3.66732 6.16667L5.66732 3.33334H7.75065L6.00065 5.83334H11.2507C12.6872 5.83334 14.065 6.40402 15.0808 7.41984C16.0966 8.43566 16.6673 9.81341 16.6673 11.25C16.6673 12.6866 16.0966 14.0643 15.0808 15.0802C14.065 16.096 12.6872 16.6667 11.2507 16.6667H7.50065L8.33398 15H11.2507C12.2452 15 13.199 14.6049 13.9023 13.9017C14.6056 13.1984 15.0007 12.2446 15.0007 11.25C15.0007 10.2554 14.6056 9.30161 13.9023 8.59835C13.199 7.89509 12.2452 7.5 11.2507 7.5H6.00065L7.75065 10H5.66732L3.66732 7.16667L3.33398 6.66667L3.66732 6.16667Z" fill="#313131"/>
</svg>
