<svg width="24" height="24" viewBox="0 0 24 24" fill="none" xmlns="http://www.w3.org/2000/svg">
<mask id="mask0_216_793" style="mask-type:luminance" maskUnits="userSpaceOnUse" x="0" y="0" width="23" height="23">
<path d="M11.6075 21.2803C12.878 21.2819 14.1363 21.0324 15.3101 20.5462C16.4839 20.06 17.55 19.3466 18.4473 18.4471C19.3468 17.5499 20.0601 16.4837 20.5464 15.31C21.0326 14.1362 21.2821 12.8779 21.2805 11.6074C21.2821 10.3369 21.0326 9.07867 20.5464 7.9049C20.0601 6.73113 19.3468 5.66499 18.4473 4.76775C17.55 3.86825 16.4839 3.15491 15.3101 2.6687C14.1363 2.18249 12.878 1.933 11.6075 1.93457C10.337 1.933 9.07875 2.18249 7.90496 2.6687C6.73118 3.15491 5.66504 3.86825 4.76779 4.76775C3.86828 5.66499 3.15493 6.73113 2.66871 7.9049C2.1825 9.07867 1.93301 10.3369 1.93458 11.6074C1.93301 12.8779 2.1825 14.1362 2.66871 15.31C3.15493 16.4837 3.86828 17.5499 4.76779 18.4471C5.66504 19.3466 6.73118 20.06 7.90496 20.5462C9.07875 21.0324 10.337 21.2819 11.6075 21.2803Z" fill="white" stroke="white" stroke-width="2" stroke-linejoin="round"/>
<path d="M7.73828 11.6074L10.6402 14.5093L16.4439 8.70557" stroke="black" stroke-width="2" stroke-linecap="round" stroke-linejoin="round"/>
</mask>
<g mask="url(#mask0_216_793)">
<path d="M0 0H23.2151V23.2149H0V0Z" fill="#7A1B17"/>
</g>
</svg>
