<svg width="106" height="181" viewBox="0 0 106 181" fill="none" xmlns="http://www.w3.org/2000/svg">
<path d="M52.9639 0C56.6624 0 59.6611 2.99675 59.6611 6.69336C59.6611 10.3647 56.7037 13.3442 53.04 13.3848C53.8478 28.6312 60.9143 161.734 61.4883 163.073C62.0971 164.493 63.6502 166.212 65.3438 167.333C67.0373 168.454 68.2423 168.673 70.2148 169.158C72.1872 169.643 74.1743 169.508 76.708 169.767C79.242 170.025 83.9045 170.415 87.2607 170.983C90.617 171.551 93.7991 172.047 95.7842 172.809C97.7692 173.571 98.9509 173.971 100.654 175.243C102.358 176.516 105.119 180.517 105.119 180.517H0C0 180.517 2.66108 177.047 4.87012 175.445C7.06315 173.855 8.56695 173.322 11.1055 172.423L11.1611 172.403C13.7334 171.492 17.9528 171.221 22.3223 170.578C26.6918 169.935 32.4541 169.699 34.9043 168.955C37.3544 168.212 39.6347 167.618 40.9922 166.521C42.3496 165.425 42.6155 165.304 43.833 163.073C45.0213 160.896 51.3519 35.1275 52.8633 13.3838C49.2114 13.3298 46.2676 10.3562 46.2676 6.69336C46.2676 2.99691 49.2656 0.000251891 52.9639 0Z" fill="#313131"/>
</svg>
