<svg width="158" height="8" viewBox="0 0 158 8" fill="none" xmlns="http://www.w3.org/2000/svg">
<path d="M152.83 3.67188C152.829 3.64236 152.826 3.61279 152.826 3.58301C152.826 2.23879 153.917 1.14844 155.262 1.14844C156.606 1.14863 157.696 2.23891 157.696 3.58301C157.696 4.92695 156.606 6.01641 155.262 6.0166C153.965 6.0166 152.908 5.00373 152.833 3.72656L80.7559 7.29395L4.85156 3.2959C4.86263 3.39003 4.87012 3.4859 4.87012 3.58301C4.86993 4.92695 3.78018 6.01641 2.43555 6.0166C1.09074 6.0166 0.000182916 4.92707 0 3.58301C0 2.23879 1.09063 1.14844 2.43555 1.14844C3.64072 1.14861 4.63828 2.02464 4.83301 3.17383L78.9893 0L152.83 3.67188Z" fill="#313131"/>
</svg>
