<svg width="30" height="30" viewBox="0 0 30 30" fill="none" xmlns="http://www.w3.org/2000/svg">
<path d="M9.72036 3.64526C10.3279 3.64526 12.7581 9.11321 12.7581 9.72076C12.7581 10.9359 10.9355 12.151 10.3279 13.3661C9.72036 14.5812 10.9355 15.7963 12.1506 17.0114C12.6244 17.4852 14.5808 19.4416 15.7959 18.834C17.011 18.2265 18.2261 16.4038 19.4412 16.4038C20.0487 16.4038 25.5166 18.834 25.5166 19.4416C25.5166 21.8718 23.694 23.6944 21.8714 24.302C20.0487 24.9095 18.8336 24.9095 16.4034 24.302C13.9732 23.6944 12.1506 23.0869 9.11281 20.0491C6.07506 17.0114 5.46751 15.1887 4.85996 12.7585C4.25241 10.3283 4.25241 9.11321 4.85996 7.29056C5.46751 5.46791 7.29016 3.64526 9.72036 3.64526Z" stroke="#7A1B17" stroke-width="2" stroke-linecap="round" stroke-linejoin="round"/>
</svg>
