<svg width="290" height="40" viewBox="0 0 290 40" fill="none" xmlns="http://www.w3.org/2000/svg">
<path d="M117.01 2.62716C120.957 2.27379 123.194 2.67315 127.155 2.73642C131.117 2.7997 137.304 3.14552 142.777 3.11111C148.249 3.0767 152.345 2.77175 156.783 2.64263C161.222 2.51352 163.718 2.06657 168.15 2.35218C172.581 2.63777 175.14 3.04809 179.495 4.12591C183.851 5.20372 187.704 7.12182 192.434 8.807C197.164 10.4922 199.875 11.2685 204.565 13.0665C209.254 14.8645 216.295 18.528 221.736 20.477C227.178 22.426 231.744 23.7891 235.896 24.7583C240.048 25.7275 243.829 26.7562 246.631 26.7319C249.432 26.7076 251.573 26.5822 253.743 25.7763C255.913 24.9704 257.532 23.7989 258.848 22.7346C260.163 21.6704 261.164 21.1966 261.923 19.6711C262.683 18.1457 262.575 15.5988 262.184 14.1C261.793 12.6012 260.866 11.7522 260.395 10.5712C259.923 9.39014 259.377 8.73809 259.412 7.46396C259.448 6.18983 260.984 4.27674 262.706 2.95768C264.428 1.63861 266.463 1.31093 268.815 0.959045C271.167 0.607161 272.536 0.784458 274.902 1.0246C277.267 1.26474 279.034 1.24416 281.382 2.33305C283.729 3.42195 285.238 4.48399 286.815 6.72687C288.392 8.96975 289.064 11.2133 289.172 14.1842C289.28 17.1552 288.853 18.9778 287.472 21.5978C286.091 24.2178 283.922 25.5585 281.32 27.7249C278.719 29.8913 276.815 31.3439 273.554 33.0087C270.293 34.6736 266.917 35.4253 262.559 36.6063C258.2 37.7872 254.602 38.9267 250.56 39.1608C246.629 39.3885 244.351 39.0479 240.543 38.4787L240.218 38.4301C236.28 37.8419 231.8 36.4692 226.525 34.8531L226.255 34.7702C220.863 33.1183 215.123 30.8631 210.283 29.0242C205.444 27.1853 202.789 25.9998 197.956 24.1432C193.123 22.2867 188.647 20.2776 184.21 19.0406C179.774 17.8035 176.746 16.7608 172.668 16.6454C168.591 16.53 166.36 17.5228 162.305 17.9789C158.251 18.4349 151.344 19.2733 145.245 19.4467C139.145 19.62 132.736 19.4934 129.623 19.072C126.511 18.6506 124.827 18.0411 121.725 17.5418C118.624 17.0426 115.616 16.2009 112.605 16.4114C109.595 16.6219 107.993 17.3917 105.079 18.1883C102.165 18.9849 94.3686 22.0074 87.5606 24.6058C80.7526 27.2042 76.0549 29.7418 68.4063 32.2443C60.7577 34.7469 53.4349 36.8978 48.4662 37.3971C43.4974 37.8964 40.1527 38.1202 35.6812 37.4658C31.2098 36.8114 28.3549 35.3872 24.5539 34.2493C20.7529 33.1115 17.923 32.6531 14.8447 31.2546C11.7665 29.856 9.42893 28.4372 7.38251 26.8389C5.3361 25.2406 4.00577 24.4192 2.56015 22.2452C1.11453 20.0713 0.0772583 16.7901 0.00620965 14.1664C-0.0648391 11.5428 0.519364 9.40333 1.29235 7.57413C2.06534 5.74492 2.63767 4.4501 3.97517 3.26772C5.31267 2.08535 6.38562 1.85247 8.05467 1.24723C9.72372 0.64199 11.4876 0.263623 13.7488 0.0699007C16.0099 -0.123821 19.4884 0.0767455 22.0613 0.778757C24.6341 1.48077 27.2701 2.10286 28.3233 3.52996C29.3764 4.95706 29.5648 6.10074 29.6985 7.88007C29.8321 9.6594 26.6426 13.9141 26.7762 15.6934C26.9099 17.4728 27.2405 18.5185 28.1514 20.0435C29.0624 21.5685 32.0355 23.4159 35.0028 24.6591C37.9701 25.9022 41.0081 26.2694 44.9299 26.2111C48.8518 26.1528 51.1739 25.2425 55.0965 24.2562C59.019 23.2698 63.3211 21.8542 67.3135 20.2589C71.3059 18.6635 73.3804 17.3791 77.305 15.6183C81.2297 13.8575 85.5379 11.8264 90.9617 9.77855C96.3854 7.73072 101.223 6.11554 105.622 4.98182C110.021 3.8481 113.063 2.98053 117.01 2.62716Z" fill="#7A1B17"/>
</svg>