<svg width="215" height="282" viewBox="0 0 215 282" fill="none" xmlns="http://www.w3.org/2000/svg">
<path d="M91.5104 54.8346C91.755 47.6316 94.9664 36.1857 94.9664 36.1857C95.5709 34.598 97.2764 30.7036 100.1 26.403C102.923 22.1011 105.233 18.0276 105.233 17.35C105.233 16.6724 103.82 14.8694 102.094 13.3419C99.367 10.9292 99.1116 10.0139 100.146 6.34394C101.532 1.42841 103.276 0.0275168 108.047 9.9464e-05C114.486 -0.0364569 118.166 10.0139 112.933 13.3393C109.232 15.6906 109.723 18.465 115.436 27.4566C118.423 32.1593 120.861 37.849 121.372 41.3115C122.982 52.2234 123.2 65.064 123.2 68.9664C123.2 76.6915 120.516 85.8058 117.352 88.8309L114.216 91.8272V145.634V199.441L118.102 207.89C121.439 215.145 122.149 218.648 123.128 232.695C124.36 250.378 125.969 255.327 131.843 259.489C137.251 263.321 143.134 264.952 154.859 265.87C164.115 266.593 165.55 267.03 165.55 269.124C165.55 271.394 167.052 271.542 189.933 271.542H214.316V276.765V281.987H107.158H0V276.765V271.542H24.3833C47.2535 271.542 48.7665 271.392 48.7665 269.127C48.7665 267.017 50.2295 266.606 60.3255 265.876C82.3705 264.285 91.1164 256.99 91.1164 240.197C91.1164 228.087 93.6241 214.146 97.0364 207.285L100.1 201.127V146.453V91.7776L97.0159 88.1258C93.4367 83.8892 92.5666 80.3328 91.5104 65.6071C91.5104 65.6071 91.2658 62.0376 91.5104 54.8346Z" fill="#7A1B17"/>
</svg>