<svg width="31" height="40" viewBox="0 0 31 40" fill="none" xmlns="http://www.w3.org/2000/svg">
<path d="M15.0684 0C16.1061 -0.000609051 17.1682 0.0581612 17.8281 0.1875C19.0825 0.433453 19.8054 0.649845 20.9873 1.18848C22.1734 1.72909 23.831 2.72339 25.2627 4.19141C26.6954 5.66051 27.3912 6.90904 28.2207 8.56543C29.0473 10.216 29.537 11.2417 29.8789 13.1426C30.2183 15.0298 30.2183 16.4536 29.8789 18.3408C29.537 20.2419 29.0474 21.2682 28.2207 22.9189C27.3827 24.5922 26.4343 26.0215 25.2725 27.2822C24.6778 27.9274 24.1401 28.3419 23.6152 28.7295C23.0914 29.1163 22.5929 29.4683 22.0205 30.0107C20.8423 31.1274 19.8798 32.2326 19.0098 33.2549C18.0999 34.3239 17.5731 34.7664 16.9072 35.8896C16.7781 36.1076 16.6865 36.4093 16.6133 36.7822C16.5362 37.1751 16.4991 37.5192 16.4277 37.9336C16.3647 38.2995 16.2761 38.71 16.0908 39.0264C15.9931 39.193 15.8554 39.3564 15.6602 39.4697C15.46 39.5858 15.2344 39.629 15.0005 39.6094C15.0002 39.6094 15 39.6092 15 39.6089C15 39.6086 14.9998 39.6084 14.9995 39.6084C14.0966 39.5317 13.7217 38.7997 13.5186 38.2246C13.4152 37.9318 13.3284 37.5983 13.251 37.334C13.1675 37.0491 13.089 36.8225 12.9932 36.6533C12.7307 36.1898 12.5515 35.8005 12.3789 35.4502C12.2056 35.0984 12.0301 34.7657 11.7607 34.3711C11.2184 33.5768 10.3518 32.792 9.30762 31.7373C8.30468 30.7243 7.60746 30.0649 6.46387 29.0566C5.91185 28.57 5.43642 28.2584 4.92969 27.8926C4.42472 27.528 3.91699 27.1284 3.36914 26.5C2.30728 25.2818 1.70581 24.2907 1.13086 22.8838C0.552047 21.4673 0.424494 20.5634 0.203125 19.0996C0.0875605 18.3352 0.0112427 17.1067 0.000976562 15.8809C-0.00924218 14.6601 0.0457807 13.3905 0.207031 12.5566C0.515701 10.9606 0.815593 9.94417 1.50586 8.56543C2.19993 7.17914 2.94165 6.3342 3.7168 5.38281C4.49167 4.43175 4.94923 3.81257 5.9375 2.99609C6.92212 2.18269 7.70218 1.73074 8.92188 1.18652C10.154 0.636817 10.9447 0.425257 12.2637 0.185547C12.9531 0.0602973 14.0286 0.00063398 15.0684 0ZM14.8633 10.1406C11.9915 10.1407 9.66321 12.6481 9.66309 15.7412C9.66309 18.8344 11.9914 21.3417 14.8633 21.3418C17.7352 21.3418 20.0635 18.8345 20.0635 15.7412C20.0634 12.6481 17.7351 10.1406 14.8633 10.1406Z" fill="#F83E17"/>
</svg>
