<svg width="375" height="311" viewBox="0 0 375 311" fill="none" xmlns="http://www.w3.org/2000/svg">
<g opacity="0.5">
<path d="M157.905 83.722C161.852 83.3686 164.088 83.768 168.05 83.8313C172.012 83.8945 178.198 84.2404 183.671 84.206C189.144 84.1715 193.239 83.8666 197.678 83.7375C202.116 83.6084 204.613 83.1614 209.044 83.447C213.476 83.7326 216.034 84.1429 220.39 85.2208C224.745 86.2986 228.598 88.2167 233.328 89.9018C238.058 91.587 240.77 92.3633 245.459 94.1614C250.149 95.9594 257.189 99.6228 262.631 101.572C268.072 103.521 272.639 104.884 276.791 105.853C280.943 106.822 284.724 107.851 287.525 107.827C290.327 107.802 292.467 107.677 294.637 106.871C296.808 106.065 298.426 104.894 299.742 103.829C301.058 102.765 302.058 102.291 302.818 100.766C303.578 99.2405 303.47 96.6936 303.079 95.1948C302.688 93.696 301.761 92.8471 301.289 91.666C300.818 90.485 300.271 89.8329 300.307 88.5588C300.343 87.2847 301.879 85.3716 303.601 84.0525C305.323 82.7335 307.357 82.4058 309.709 82.0539C312.061 81.702 313.431 81.8793 315.796 82.1195C318.162 82.3596 319.929 82.339 322.276 83.4279C324.624 84.5168 326.133 85.5788 327.709 87.8217C329.286 90.0646 329.959 92.3081 330.067 95.2791C330.175 98.25 329.747 100.073 328.366 102.693C326.985 105.313 324.816 106.653 322.215 108.82C319.613 110.986 317.71 112.439 314.449 114.104C311.188 115.768 307.812 116.52 303.453 117.701C299.095 118.882 295.496 120.022 291.454 120.256C287.523 120.483 285.245 120.143 281.438 119.574L281.113 119.525C277.175 118.937 272.694 117.564 267.42 115.948L267.149 115.865C261.757 114.213 256.017 111.958 251.178 110.119C246.339 108.28 243.683 107.095 238.85 105.238C234.018 103.382 229.541 101.372 225.105 100.135C220.668 98.8984 217.641 97.8556 213.563 97.7402C209.485 97.6249 207.255 98.6177 203.2 99.0737C199.145 99.5298 192.239 100.368 186.139 100.542C180.039 100.715 173.63 100.588 170.518 100.167C167.406 99.7454 165.721 99.1359 162.62 98.6367C159.519 98.1374 156.51 97.2957 153.5 97.5062C150.49 97.7167 148.887 98.4866 145.973 99.2832C143.059 100.08 135.263 103.102 128.455 105.701C121.647 108.299 116.949 110.837 109.301 113.339C101.652 115.842 94.3294 117.993 89.3607 118.492C84.392 118.991 81.0472 119.215 76.5758 118.561C72.1043 117.906 69.2494 116.482 65.4484 115.344C61.6475 114.206 58.8176 113.748 55.7393 112.349C52.661 110.951 50.3235 109.532 48.277 107.934C46.2306 106.335 44.9003 105.514 43.4547 103.34C42.0091 101.166 40.9718 97.885 40.9007 95.2613C40.8297 92.6376 41.4139 90.4982 42.1869 88.669C42.9599 86.8398 43.5322 85.5449 44.8697 84.3626C46.2072 83.1802 47.2802 82.9473 48.9492 82.3421C50.6183 81.7368 52.3822 81.3585 54.6433 81.1647C56.9045 80.971 60.383 81.1716 62.9558 81.8736C65.5286 82.5756 68.1647 83.1977 69.2178 84.6248C70.271 86.0519 70.4594 87.1956 70.593 88.9749C70.7267 90.7543 67.5371 95.0089 67.6708 96.7883C67.8044 98.5676 68.135 99.6134 69.046 101.138C69.9569 102.663 72.9301 104.511 75.8973 105.754C78.8646 106.997 81.9026 107.364 85.8245 107.306C89.7463 107.248 92.0685 106.337 95.991 105.351C99.9135 104.365 104.216 102.949 108.208 101.354C112.2 99.7584 114.275 98.4739 118.2 96.7132C122.124 94.9524 126.432 92.9212 131.856 90.8734C137.28 88.8256 142.117 87.2104 146.517 86.0767C150.916 84.9429 153.958 84.0754 157.905 83.722Z" fill="#7A1B17"/>
<path d="M171.079 83.8475C171.323 76.6445 174.535 65.1987 174.535 65.1987C175.139 63.611 176.845 59.7165 179.668 55.4159C182.491 51.114 184.801 47.0406 184.801 46.363C184.801 45.6854 183.388 43.8824 181.662 42.3548C178.935 39.9421 178.68 39.0269 179.714 35.3569C181.1 30.4414 182.844 29.0405 187.616 29.013C194.054 28.9765 197.735 39.0269 192.501 42.3522C188.8 44.7036 189.292 47.4779 195.004 56.4695C197.992 61.1722 200.43 66.862 200.941 70.3244C202.55 81.2364 202.768 94.0769 202.768 97.9793C202.768 105.704 200.085 114.819 196.92 117.844L193.785 120.84V174.647V228.454L197.671 236.903C201.007 244.158 201.717 247.661 202.696 261.708C203.928 279.39 205.537 284.34 211.411 288.502C216.819 292.334 222.702 293.965 234.428 294.883C243.683 295.606 245.118 296.043 245.118 298.137C245.118 300.406 246.621 300.555 269.501 300.555H293.884V305.778V311H186.726H79.5684V305.778V300.555H103.952C126.822 300.555 128.335 300.405 128.335 298.14C128.335 296.03 129.798 295.619 139.894 294.889C161.939 293.298 170.685 286.003 170.685 269.21C170.685 257.1 173.192 243.159 176.605 236.298L179.668 230.14V175.466V120.79L176.584 117.139C173.005 112.902 172.135 109.346 171.079 94.62C171.079 94.62 170.834 91.0506 171.079 83.8475Z" fill="#7A1B17"/>
<path d="M374.405 232.981C365.321 243.655 341.817 251.26 314.253 251.26C286.688 251.26 263.183 243.656 254.1 232.981H374.405Z" fill="#7A1B17"/>
<path d="M314.824 112.57L372.644 233.634" stroke="#7A1B17"/>
<line y1="-0.5" x2="133.837" y2="-0.5" transform="matrix(-0.441084 0.897466 -0.891314 -0.453386 314.253 112.867)" stroke="#7A1B17"/>
<line x1="314.753" y1="112.867" x2="314.753" y2="235.593" stroke="#7A1B17"/>
<path d="M120.306 232.981C111.222 243.655 87.7178 251.26 60.1533 251.26C32.5886 251.26 9.08383 243.656 0 232.981H120.306Z" fill="#7A1B17"/>
<path d="M60.7246 112.57L118.545 233.634" stroke="#7A1B17"/>
<line y1="-0.5" x2="133.837" y2="-0.5" transform="matrix(-0.441084 0.897466 -0.891314 -0.453386 60.1533 112.867)" stroke="#7A1B17"/>
<line x1="60.6533" y1="112.867" x2="60.6533" y2="235.593" stroke="#7A1B17"/>
</g>
</svg>
